# File created by Blade
# Date/Time:  Thu Jan 22 19:34:22 2015
#---------------------------------------------------------
:version 1.10
:name HOM
:units
  mass 1.0
  length 1.000000
  angle deg
:documentation
     Acclaim Skeleton File
:root
   axis xyz
   order TX TY TZ RX RY RZ
   position 0.000000 0.000000 0.000000
   orientation 0 0 0
:bonedata
   begin
      id 1
      name RightUpLeg_dum
      direction -1.000000 0.000000 0.000000
      length 4.478084
      axis 0.0 0.0 0.0 xyz
   end
   begin
      id 2
      name LeftUpLeg_dum
      direction 1.000000 0.000000 0.000000
      length 4.478084
      axis 0.0 0.0 0.0 xyz
   end
   begin
      id 3
      name Spine_dum
      direction 0.000000 1.000000 0.000000
      length 6.068208
      axis 0.0 0.0 0.0 xyz
   end
   begin
      id 4
      name RightUpLeg
      direction 0.000000 -1.000000 0.000000
      length 16.405774
      axis 0.0 0.0 0.0 xyz
      dof rx ry rz
   end
   begin
      id 5
      name RightLeg
      direction 0.000000 -1.000000 0.000000
      length 14.644143
      axis 0.0 0.0 0.0 xyz
      dof rx ry rz
   end
   begin
      id 6
      name RightFoot
      direction 0.000000 -0.258819 0.965926
      length 5.806150
      axis 15.0 0.0 0.0 xyz
      dof rx ry rz
   end
   begin
      id 7
      name RightToeBase
      direction 0.000000 0.000000 1.000000
      length 2.952750
      axis 0.0 0.0 0.0 xyz
      dof rx ry rz
   end
   begin
      id 8
      name LeftUpLeg
      direction 0.000000 -1.000000 0.000000
      length 16.405774
      axis 0.0 0.0 0.0 xyz
      dof rx ry rz
   end
   begin
      id 9
      name LeftLeg
      direction 0.000000 -1.000000 0.000000
      length 14.644143
      axis 0.0 0.0 0.0 xyz
      dof rx ry rz
   end
   begin
      id 10
      name LeftFoot
      direction 0.000000 -0.258819 0.965926
      length 5.806150
      axis 15.0 0.0 0.0 xyz
      dof rx ry rz
   end
   begin
      id 11
      name LeftToeBase
      direction 0.000000 0.000000 1.000000
      length 2.952750
      axis 0.0 0.0 0.0 xyz
      dof rx ry rz
   end
   begin
      id 12
      name Spine
      direction 0.000000 1.000000 0.000000
      length 0.000000
      axis 0.0 0.0 0.0 xyz
      dof rx ry rz
   end
   begin
      id 13
      name Spine_dum1
      direction 0.000000 1.000000 0.000000
      length 10.013923
      axis 0.0 0.0 0.0 xyz
   end
   begin
      id 14
      name Spine_dum2
      direction 0.000000 1.000000 0.000000
      length 10.013923
      axis 0.0 0.0 0.0 xyz
   end
   begin
      id 15
      name Spine_dum3
      direction 0.000000 1.000000 0.000000
      length 15.777476
      axis 0.0 0.0 0.0 xyz
   end
   begin
      id 16
      name RightShoulder
      direction -1.000000 0.000000 0.000000
      length 7.190220
      axis 0.0 0.0 90.0 xyz
      dof rx ry rz
   end
   begin
      id 17
      name RightArm
      direction -1.000000 0.000000 0.000000
      length 10.177469
      axis 0.0 0.0 90.0 xyz
      dof rx ry rz
   end
   begin
      id 18
      name RightForeArm
      direction -1.000000 0.000000 0.000000
      length 8.392114
      axis 0.0 0.0 90.0 xyz
      dof ry rz rx
   end
   begin
      id 19
      name RightHand
      direction -1.000000 0.000000 0.000000
      length 0.000000
      axis 0.0 0.0 90.0 xyz
      dof rx ry rz
   end
   begin
      id 20
      name RightHand_dum1
      direction -1.000000 0.000000 0.000000
      length 3.937000
      axis 0.0 0.0 90.0 xyz
   end
   begin
      id 21
      name RightHand_dum2
      direction 0.000000 0.000000 0.000000
      length 0.000000
      axis 0.0 0.0 90.0 xyz
   end
   begin
      id 22
      name RightHandThumb1
      direction 0.000000 0.000000 1.000000
      length 3.937000
      axis 0.0 0.0 90.0 xyz
      dof rx rz ry
   end
   begin
      id 23
      name LeftShoulder
      direction 1.000000 0.000000 0.000000
      length 7.190220
      axis 0.0 0.0 -90.0 xyz
      dof rx ry rz
   end
   begin
      id 24
      name LeftArm
      direction 1.000000 0.000000 0.000000
      length 10.177469
      axis 0.0 0.0 -90.0 xyz
      dof rx ry rz
   end
   begin
      id 25
      name LeftForeArm
      direction 1.000000 0.000000 0.000000
      length 8.392114
      axis 0.0 0.0 -90.0 xyz
      dof ry rz rx
   end
   begin
      id 26
      name LeftHand
      direction 1.000000 0.000000 0.000000
      length 0.000000
      axis 0.0 0.0 -90.0 xyz
      dof rx ry rz
   end
   begin
      id 27
      name LeftHand_dum1
      direction 1.000000 0.000000 0.000000
      length 3.937000
      axis 0.0 0.0 -90.0 xyz
   end
   begin
      id 28
      name LeftHand_dum2
      direction 0.000000 0.000000 0.000000
      length 0.000000
      axis 0.0 0.0 -90.0 xyz
   end
   begin
      id 29
      name LeftHandThumb1
      direction 0.000000 0.000000 1.000000
      length 3.937000
      axis 0.0 0.0 -90.0 xyz
      dof rx rz ry
   end
   begin
      id 30
      name Head
      direction 0.000000 1.000000 0.000000
      length 4.527550
      axis 0.0 0.0 0.0 xyz
      dof rx ry rz
   end
:hierarchy
   begin
      root RightUpLeg_dum LeftUpLeg_dum Spine_dum
      RightUpLeg_dum RightUpLeg
      LeftUpLeg_dum LeftUpLeg
      Spine_dum Spine
      RightUpLeg RightLeg
      RightLeg RightFoot
      RightFoot RightToeBase
      LeftUpLeg LeftLeg
      LeftLeg LeftFoot
      LeftFoot LeftToeBase
      Spine Spine_dum1 Spine_dum2 Spine_dum3
      Spine_dum1 RightShoulder
      Spine_dum2 LeftShoulder
      Spine_dum3 Head
      RightShoulder RightArm
      RightArm RightForeArm
      RightForeArm RightHand
      RightHand RightHand_dum1 RightHand_dum2
      RightHand_dum2 RightHandThumb1
      LeftShoulder LeftArm
      LeftArm LeftForeArm
      LeftForeArm LeftHand
      LeftHand LeftHand_dum1 LeftHand_dum2
      LeftHand_dum2 LeftHandThumb1
   end

# File created by Blade
# Date/Time:  Thu Jan 22 19:34:15 2015
# Frame Rate: 120.000 fps
#------------------------------------------------------
:FULLY-SPECIFIED
:DEGREES
465
root -12.543775 23.920454 -7.475969 27.620963 -28.561432 6.460826
RightUpLeg -84.952548 -25.869276 3.312119
RightLeg 90.407657 -0.000000 -0.000000
RightFoot -39.796355 5.050438 0.817529
RightToeBase 3.693390 -0.000000 -0.000000
LeftUpLeg -11.904051 37.433634 28.302332
LeftLeg 7.891242 -0.000000 -0.000000
LeftFoot -7.869778 7.900548 -48.457350
LeftToeBase 13.400835 -0.000000 -0.000000
Spine -2.805378 1.271356 6.457373
RightShoulder -13.412770 -11.060479 -17.313125
RightArm 31.304417 -0.024154 58.319314
RightForeArm -17.286737 -0.000000 46.326255
RightHand 13.812940 -0.000000 1.541034
RightHandThumb1 -24.326973 -0.000000 -32.862282
LeftShoulder -22.502426 4.902216 19.252794
LeftArm 12.037523 28.175307 -83.302930
LeftForeArm 29.700389 -0.000000 45.498801
LeftHand -0.748362 -0.000000 -11.361799
LeftHandThumb1 -26.253704 0.000000 33.147579
Head -21.869806 19.948483 -10.414505
466
root -12.558694 23.816774 -7.509788 27.915359 -28.333707 6.286705
RightUpLeg -85.484877 -25.966984 3.706702
RightLeg 90.926807 -0.000000 -0.000000
RightFoot -39.984898 5.077372 0.786475
RightToeBase 3.550969 -0.000000 -0.000000
LeftUpLeg -12.169922 37.551467 28.666674
LeftLeg 8.044346 -0.000000 -0.000000
LeftFoot -7.802975 7.238773 -48.962058
LeftToeBase 13.084341 -0.000000 -0.000000
Spine -2.849985 1.149139 6.639533
RightShoulder -13.430597 -11.093221 -17.172632
RightArm 31.327611 -0.137394 58.397291
RightForeArm -17.297040 -0.000000 46.131693
RightHand 13.805560 -0.000000 1.495319
RightHandThumb1 -24.326973 -0.000000 -32.862282
LeftShoulder -22.390839 4.742795 19.418658
LeftArm 12.267361 28.190038 -83.085071
LeftForeArm 29.658697 -0.000000 45.572016
LeftHand -0.946830 -0.000000 -11.349715
LeftHandThumb1 -26.253704 0.000000 33.147579
Head -22.047721 19.932391 -10.163047
467
root -12.579206 23.714978 -7.539251 28.109155 -28.152085 6.145182
RightUpLeg -85.929378 -26.060331 4.052440
RightLeg 91.442763 -0.000000 -0.000000
RightFoot -40.173234 5.108820 0.777878
RightToeBase 3.553713 -0.000000 -0.000000
LeftUpLeg -12.255376 37.597226 29.098232
LeftLeg 8.145910 -0.000000 -0.000000
LeftFoot -7.639687 6.560910 -49.163932
LeftToeBase 12.838525 -0.000000 -0.000000
Spine -2.798802 1.031777 6.740584
RightShoulder -13.371593 -11.025202 -17.021729
RightArm 31.228702 -0.205327 58.501981
RightForeArm -17.434517 -0.000000 45.954943
RightHand 13.832752 0.000000 1.657852
RightHandThumb1 -24.326973 -0.000000 -32.862282
LeftShoulder -22.316575 4.563117 19.600405
LeftArm 12.490523 28.182768 -82.874455
LeftForeArm 29.477571 0.000000 45.595536
LeftHand -1.102140 -0.000000 -11.327393
LeftHandThumb1 -26.253704 0.000000 33.147579
Head -22.271548 19.923011 -9.912035
468
root -12.600849 23.614711 -7.568699 28.322575 -27.987997 6.067399
RightUpLeg -86.434941 -26.172961 4.338829
RightLeg 91.981051 -0.000000 -0.000000
RightFoot -40.345920 5.282245 0.797871
RightToeBase 3.505164 -0.000000 -0.000000
LeftUpLeg -12.402384 37.588056 29.438166
LeftLeg 8.238425 -0.000000 -0.000000
LeftFoot -7.502536 5.950198 -49.360541
LeftToeBase 12.512260 -0.000000 -0.000000
Spine -2.808034 0.973143 6.749185
RightShoulder -13.418497 -11.089165 -16.811316
RightArm 31.252937 -0.283367 58.612944
RightForeArm -17.401304 -0.000000 45.768609
RightHand 13.840103 -0.000000 1.665427
RightHandThumb1 -24.326973 -0.000000 -32.862282
LeftShoulder -22.220864 4.426858 19.763511
LeftArm 12.810578 28.216376 -82.583954
LeftForeArm 29.354159 -0.000000 45.594627
LeftHand -1.141770 -0.000000 -11.149135
LeftHandThumb1 -26.253704 0.000000 33.147579
Head -22.463756 19.822162 -9.596620
469
root -12.623102 23.517321 -7.599491 28.540526 -27.816546 6.032680
RightUpLeg -86.999827 -26.323303 4.638864
RightLeg 92.531512 -0.000000 -0.000000
RightFoot -40.488018 5.388476 0.802087
RightToeBase 3.454841 -0.000000 -0.000000
LeftUpLeg -12.565839 37.391614 29.773635
LeftLeg 8.330831 -0.000000 -0.000000
LeftFoot -7.366571 5.367892 -49.441304
LeftToeBase 12.019876 -0.000000 -0.000000
Spine -2.848398 0.926599 6.721393
RightShoulder -13.452179 -11.089280 -16.666487
RightArm 31.162053 -0.411558 58.742438
RightForeArm -17.437392 -0.000000 45.558792
RightHand 13.881361 -0.000000 1.686244
RightHandThumb1 -24.326973 -0.000000 -32.862282
LeftShoulder -22.082689 4.257879 19.917884
LeftArm 13.082898 28.196473 -82.308020
LeftForeArm 29.208528 0.000000 45.617689
LeftHand -1.255555 -0.000000 -11.100562
LeftHandThumb1 -26.253704 0.000000 33.147579
Head -22.655511 19.704098 -9.330476
470
root -12.643960 23.422061 -7.631749 28.765200 -27.664140 6.076786
RightUpLeg -87.641872 -26.503728 4.923380
RightLeg 93.088303 -0.000000 -0.000000
RightFoot -40.624681 5.577137 0.759150
RightToeBase 3.346493 -0.000000 -0.000000
LeftUpLeg -12.809158 37.166525 29.983798
LeftLeg 8.428396 -0.000000 -0.000000
LeftFoot -7.318643 4.927594 -49.457576
LeftToeBase 11.818847 -0.000000 -0.000000
Spine -2.945943 0.883713 6.585640
RightShoulder -13.514954 -11.268054 -16.447749
RightArm 31.229199 -0.431847 58.878819
RightForeArm -17.435312 -0.000000 45.354580
RightHand 13.929575 -0.000000 1.780736
RightHandThumb1 -24.326973 -0.000000 -32.862282
LeftShoulder -21.957937 4.045340 20.123638
LeftArm 13.330284 28.223117 -82.047737
LeftForeArm 29.110927 -0.000000 45.619816
LeftHand -1.258919 0.000000 -10.764628
LeftHandThumb1 -26.253704 0.000000 33.147579
Head -22.802537 19.583522 -9.029569
471
root -12.661903 23.325654 -7.665476 29.021611 -27.500193 6.156661
RightUpLeg -88.359067 -26.723256 5.232143
RightLeg 93.653451 -0.000000 -0.000000
RightFoot -40.775637 5.738864 0.663911
RightToeBase 3.371718 -0.000000 -0.000000
LeftUpLeg -13.066576 36.689475 30.164876
LeftLeg 8.466250 -0.000000 -0.000000
LeftFoot -7.479804 4.651476 -49.634839
LeftToeBase 11.487433 -0.000000 -0.000000
Spine -3.101811 0.839154 6.450773
RightShoulder -13.557070 -11.322339 -16.360338
RightArm 31.128313 -0.559382 59.063127
RightForeArm -17.500544 0.000000 45.180301
RightHand 13.845394 -0.000000 1.700126
RightHandThumb1 -24.326973 -0.000000 -32.862282
LeftShoulder -21.767174 3.818307 20.316920
LeftArm 13.438986 28.147441 -81.842774
LeftForeArm 29.018210 -0.000000 45.736227
LeftHand -1.341396 -0.000000 -10.827243
LeftHandThumb1 -26.253704 0.000000 33.147579
Head -22.966243 19.418411 -8.814172
472
root -12.680417 23.228031 -7.691893 29.206433 -27.409394 6.271033
RightUpLeg -89.023712 -26.916729 5.453803
RightLeg 94.226318 -0.000000 -0.000000
RightFoot -40.939442 5.852156 0.586603
RightToeBase 3.323871 -0.000000 -0.000000
LeftUpLeg -13.257015 36.443718 30.262226
LeftLeg 8.498678 -0.000000 -0.000000
LeftFoot -7.586241 4.328963 -49.624478
LeftToeBase 11.138667 -0.000000 -0.000000
Spine -3.179390 0.820767 6.241032
RightShoulder -13.607024 -11.339774 -16.277559
RightArm 31.021801 -0.684587 59.289544
RightForeArm -17.424582 -0.000000 44.977142
RightHand 13.869960 0.000000 1.730714
RightHandThumb1 -24.326973 -0.000000 -32.862282
LeftShoulder -21.704753 3.724250 20.442128
LeftArm 13.834990 28.192494 -81.488085
LeftForeArm 28.813293 -0.000000 45.761919
LeftHand -1.396669 -0.000000 -10.797225
LeftHandThumb1 -26.253704 0.000000 33.147579
Head -23.197955 19.168703 -8.606889
473
root -12.702339 23.131165 -7.719817 29.395802 -27.306605 6.329790
RightUpLeg -89.639427 -27.089968 5.712335
RightLeg 94.780631 -0.000000 -0.000000
RightFoot -41.090199 6.062602 0.506920
RightToeBase 3.306413 -0.000000 -0.000000
LeftUpLeg -13.384973 36.164505 30.429272
LeftLeg 8.463337 -0.000000 -0.000000
LeftFoot -7.781053 4.096976 -49.524971
LeftToeBase 10.832911 -0.000000 -0.000000
Spine -3.223182 0.810436 6.109021
RightShoulder -13.609598 -11.304548 -16.228086
RightArm 30.839394 -0.778442 59.491219
RightForeArm -17.432865 -0.000000 44.830141
RightHand 13.898808 0.000000 1.879045
RightHandThumb1 -24.326973 -0.000000 -32.862282
LeftShoulder -21.582633 3.479827 20.573444
LeftArm 13.985444 28.071587 -81.274713
LeftForeArm 28.754199 -0.000000 45.834213
LeftHand -1.439193 -0.000000 -10.877567
LeftHandThumb1 -26.253704 0.000000 33.147579
Head -23.406448 18.992588 -8.449740
474
root -12.722515 23.031571 -7.742771 29.540078 -27.259473 6.432110
RightUpLeg -90.243337 -27.230213 5.888562
RightLeg 95.354158 -0.000000 -0.000000
RightFoot -41.256725 6.195136 0.410102
RightToeBase 3.360099 -0.000000 -0.000000
LeftUpLeg -13.392649 35.930948 30.549591
LeftLeg 8.289277 -0.000000 -0.000000
LeftFoot -7.935105 3.851379 -49.476309
LeftToeBase 10.393042 -0.000000 -0.000000
Spine -3.254397 0.835987 5.907578
RightShoulder -13.589260 -11.446762 -16.157286
RightArm 30.768095 -0.749265 59.709618
RightForeArm -17.378548 0.000000 44.698449
RightHand 13.924022 -0.000000 1.942437
RightHandThumb1 -24.326973 -0.000000 -32.862282
LeftShoulder -21.422500 3.226850 20.724099
LeftArm 14.093896 28.032168 -81.045476
LeftForeArm 28.632497 -0.000000 45.908846
LeftHand -1.440919 -0.000000 -10.505933
LeftHandThumb1 -26.253704 0.000000 33.147579
Head -23.603656 18.849982 -8.321157
475
root -12.746384 22.930499 -7.762883 29.677902 -27.269932 6.507884
RightUpLeg -90.812281 -27.288205 6.036533
RightLeg 95.923976 -0.000000 -0.000000
RightFoot -41.400125 6.304096 0.348090
RightToeBase 3.270522 -0.000000 -0.000000
LeftUpLeg -13.314001 35.870501 30.677688
LeftLeg 8.054213 -0.000000 -0.000000
LeftFoot -7.983028 3.540793 -49.313314
LeftToeBase 9.926697 -0.000000 -0.000000
Spine -3.247819 0.926635 5.705989
RightShoulder -13.611804 -11.443296 -16.123676
RightArm 30.618271 -0.819371 59.933869
RightForeArm -17.382352 0.000000 44.538141
RightHand 13.862661 -0.000000 2.082422
RightHandThumb1 -24.326973 -0.000000 -32.862282
LeftShoulder -21.318623 3.124270 20.775746
LeftArm 14.397749 27.982512 -80.727228
LeftForeArm 28.476860 -0.000000 46.005752
LeftHand -1.452470 -0.000000 -10.511487
LeftHandThumb1 -26.253704 0.000000 33.147579
Head -23.850647 18.624168 -8.242262
476
root -12.770345 22.831238 -7.784289 29.822875 -27.286330 6.576156
RightUpLeg -91.374147 -27.310777 6.174443
RightLeg 96.481185 -0.000000 -0.000000
RightFoot -41.552148 6.398611 0.270441
RightToeBase 3.462164 -0.000000 -0.000000
LeftUpLeg -13.238361 35.892253 30.789134
LeftLeg 7.801689 -0.000000 -0.000000
LeftFoot -7.987497 3.227688 -49.215407
LeftToeBase 9.500936 -0.000000 -0.000000
Spine -3.230533 0.986370 5.526428
RightShoulder -13.605140 -11.440773 -16.096560
RightArm 30.516396 -0.857368 60.145667
RightForeArm -17.328077 -0.000000 44.346673
RightHand 13.863241 0.000000 2.121053
RightHandThumb1 -24.326973 -0.000000 -32.862282
LeftShoulder -21.265162 3.023821 20.815311
LeftArm 14.683244 27.925868 -80.421680
LeftForeArm 28.396154 -0.000000 46.069957
LeftHand -1.501174 0.000000 -10.261927
LeftHandThumb1 -26.253704 0.000000 33.147579
Head -24.103522 18.459179 -8.169775
